<?xml version="1.0" encoding="UTF-8"?><svg id="Capa_1" xmlns="http://www.w3.org/2000/svg" xmlns:xlink="http://www.w3.org/1999/xlink" viewBox="0 0 1200 1200"><defs><style>.cls-1{fill:#fff;}.cls-2{fill:url(#Degradado_sin_nombre_73-5);}.cls-3{fill:url(#Degradado_sin_nombre_73);}.cls-4{fill:url(#Degradado_sin_nombre_73-6);}.cls-5{fill:url(#Degradado_sin_nombre_73-4);}.cls-6{fill:url(#Degradado_sin_nombre_73-3);}.cls-7{fill:url(#Degradado_sin_nombre_73-2);}.cls-8{fill:url(#Degradado_sin_nombre_73-7);}.cls-9{fill:#1e1e1e;}</style><linearGradient id="Degradado_sin_nombre_73" x1="373.6" y1="443.51" x2="820.05" y2="413.85" gradientUnits="userSpaceOnUse"><stop offset="0" stop-color="#fff"/><stop offset="0" stop-color="#d4c485"/><stop offset=".26" stop-color="#cbab66"/><stop offset=".3" stop-color="#9c7932"/><stop offset=".39" stop-color="#d5b876"/><stop offset=".54" stop-color="#eae5b4"/><stop offset=".66" stop-color="#896732"/><stop offset=".71" stop-color="#cc9f42"/><stop offset=".92" stop-color="#896732"/><stop offset="1" stop-color="#c7963e"/></linearGradient><linearGradient id="Degradado_sin_nombre_73-2" x1="378.06" y1="510.54" x2="824.5" y2="480.89" xlink:href="#Degradado_sin_nombre_73"/><linearGradient id="Degradado_sin_nombre_73-3" x1="380.38" y1="545.51" x2="826.82" y2="515.86" xlink:href="#Degradado_sin_nombre_73"/><linearGradient id="Degradado_sin_nombre_73-4" x1="386.32" y1="634.91" x2="832.76" y2="605.26" xlink:href="#Degradado_sin_nombre_73"/><linearGradient id="Degradado_sin_nombre_73-5" x1="397.16" y1="798.17" x2="843.61" y2="768.51" xlink:href="#Degradado_sin_nombre_73"/><linearGradient id="Degradado_sin_nombre_73-6" x1="373.2" y1="437.44" x2="819.65" y2="407.78" xlink:href="#Degradado_sin_nombre_73"/><linearGradient id="Degradado_sin_nombre_73-7" x1="372.23" y1="422.86" x2="818.68" y2="393.21" xlink:href="#Degradado_sin_nombre_73"/></defs><rect class="cls-9" width="1200" height="1200"/><g><g><path class="cls-1" d="m570.42,888.66c-2.03,1.78-4.1,3.6-6.45,5.67-7.4-6.48-15.78-9.69-25.45-8.59-7.61.86-14.41,3.78-19.65,9.47-9.77,10.61-9.94,29.44-.58,40.34,10.8,12.58,27.46,13.39,46.08,2,1.78,1.59,3.65,3.26,5.45,4.88-6.41,13.7-38.04,17.3-53.99,4.43-17.9-14.46-20.13-41.36-4.54-58.02,15.24-16.28,44.05-16.74,59.12-.17Z"/><path class="cls-1" d="m693.06,890.94c11.29,0,22.32-1.1,33.03.28,12.82,1.66,19.17,10.85,18.35,23.16-.72,10.81-8.75,18.71-20.74,19.84-5.58.53-11.24.22-16.86.36-1.47.04-2.94.33-5.29.6v18.68h-8.5v-62.93Zm8.74,36.55c8.67-.57,16.59-.4,24.23-1.8,6.69-1.22,9.57-6.08,9.71-12.88.14-6.77-2.71-11.52-8.97-13.64-8.13-2.75-16.43-1.58-24.96-1.12v29.44Z"/><path class="cls-1" d="m893.56,954.1h-8.55c9.78-21.62,19.31-42.69,28.84-63.75h8.94c9.49,20.87,19.07,41.95,28.93,63.64h-8.88c-2.34-4.96-4.71-10-7.3-15.49h-34.35c-2.37,4.86-4.92,10.07-7.62,15.6Zm25.76-53.04c-4.44,3.93-13.02,23-13.63,29.71h26.65c-4.61-10.51-8.78-20.03-13.02-29.71Z"/><path class="cls-1" d="m663.94,954.01h-8.98c-2.26-4.96-4.58-10.03-7.34-16.07-5.44,0-11.01,0-16.57,0s-11.24,0-17.39,0c-2.66,5.43-5.21,10.65-7.86,16.07h-8.54c9.75-21.54,19.29-42.62,28.81-63.67h8.92c9.5,20.9,19.09,41.98,28.95,63.67Zm-32.46-52.95c-.68-.04-1.35-.07-2.03-.11-4.23,9.8-8.45,19.6-12.91,29.92h28.1c-4.66-10.55-8.91-20.18-13.17-29.81Z"/><path class="cls-1" d="m289.15,889.89c19.65-.04,33.55,13.15,33.74,32.01.18,18.84-13.77,32.1-33.1,32.79-17.27.61-34.3-12.32-34.28-32.53.02-18.51,14.32-32.23,33.64-32.27Zm.31,59.37c15.65-.12,27.39-11.88,27.22-27.24-.18-15.51-11.99-26.99-27.62-26.84-15.6.15-27.47,11.97-27.33,27.23.13,15.28,12.2,26.96,27.74,26.84Z"/><path class="cls-1" d="m464.76,895.1c-1.05,1.96-1.62,3.02-2.1,3.93-4.99-1.35-9.58-3.4-14.25-3.63-4.93-.24-10.15.65-14.86,2.19-4.13,1.36-6.14,5.34-5.9,9.86.22,4.26,2.71,7.23,6.57,8.66,4.55,1.68,9.28,2.82,13.91,4.28,3.4,1.07,6.87,2.05,10.11,3.49,5.52,2.46,9.04,6.48,9.09,12.97.06,6.55-2.85,11.4-8.39,14.46-8.33,4.6-17.31,4.17-26.11,1.91-4.32-1.11-8.32-3.52-12.94-5.56.94-2.14,1.5-3.43,2.2-5.04,1.21.57,2.12.9,2.94,1.4,7.98,4.85,16.5,6.79,25.72,4.65,6.51-1.52,10.34-5.47,10.49-10.6.13-4.49-2.75-8.09-8.82-10.28-4.07-1.47-8.34-2.4-12.49-3.66-3.17-.96-6.44-1.79-9.42-3.18-5.45-2.55-8.92-6.64-9.07-13.08-.16-6.87,2.71-12.21,8.77-14.98,11.44-5.23,22.76-4.08,34.56,2.21Z"/><path class="cls-1" d="m182.76,948.13h43.65v5.69h-50.21v-75.16c.53-.31,1.13-.92,1.79-.99,1.24-.12,2.51.07,4.76.18v70.28Z"/><path class="cls-1" d="m980.98,890.41h8.08v56.04h34.73v7.53h-42.81v-63.57Z"/><path class="cls-1" d="m838.31,897.62h-22.02c-.11-2.57-.2-4.64-.31-7.13h52.38v7.17h-21.69v56.12h-8.35v-56.17Z"/><path class="cls-1" d="m398.19,890.56c-.23,1.98-.38,3.17-.59,5.01h-21.81v58.19h-6.5v-57.77h-22.15c-.21-2.2-.34-3.58-.51-5.43h51.57Z"/><path class="cls-1" d="m785.75,890.02v63.79c-2.5.17-4.9.34-7.9.55v-63.73c2.22-.17,4.62-.35,7.9-.6Z"/></g><g><path class="cls-3" d="m666.59,589.97h-11.77v14.58h-6.16v-14.34c-3.85-.24-7.05-.45-10.52-.67v-330.37c3.36-.17,6.35-.32,10.05-.5.2-4.09.39-8.08.61-12.59,1.63-.28,3.2-.55,5.47-.94.28,4.58.53,8.59.83,13.47,3.61.16,7.31.33,11.49.51v330.85Z"/><path class="cls-7" d="m571.7,677.63c-6.69-2.99-1.02-10.28-4.33-15.18-2.97-.15-6.48-.32-10.58-.52v-330.35h11.34c.25-4.77.45-8.76.69-13.28,1.68-.22,3.25-.43,5.6-.75v13.12c3.83.34,7.02.61,10.65.93v330.24c-3.24.21-6.42.42-10.54.69v14.47c-.94.21-1.87.42-2.81.63Z"/><path class="cls-6" d="m491.03,697.2h-4.16c-.35-.38-.63-.55-.67-.76-.45-2.96-.87-5.92-1.37-9.35-2.98-.19-5.99-.37-9.6-.6v-295.02c3.19-.16,6.18-.3,9.73-.47.26-3.64.51-7.12.8-11.13,1.61-.23,3.18-.45,5.36-.76.3,4.05.55,7.54.87,11.83,3.64.17,7.34.34,11.48.54v294.93c-3.77.24-7.48.48-11.41.73-.37,3.53-.7,6.71-1.04,10.05Z"/><path class="cls-5" d="m466.05,471.51c0,6.86.32,13.73-.16,20.56-.18,2.58-2.01,5.16-3.43,7.53-33.42,56.11-31.6,131.31,5.52,185.04,27.97,40.49,65.59,67.57,114.97,75.3,54.25,8.49,103.3-3.44,145.11-40.47.77-.68,1.52-1.38,2.35-1.98.39-.28.95-.33,1.59-.54.54.33,1.26.63,1.78,1.12,2.59,2.47,5.14,4.99,8.31,8.1-46.78,43.73-102.17,58.9-163.42,47.4-74.43-13.97-124.46-59.67-146.22-131.61-18.52-61.22-7.74-119.47,33.59-170.45Z"/><path class="cls-2" d="m482.33,807.53c0-15.02,0-29.85.01-44.69,0-1.49.14-2.98.24-4.89h13.68v35.29h280.03v14.28h-293.96Z"/><path class="cls-4" d="m512.03,427.44c11.65-5.81,23.43-11.7,36.17-18.05v15.21c-11.91,6.6-23.86,13.23-36.17,20.05v-17.21Z"/><path class="cls-8" d="m629.72,400.03v13.82h-36.03v-13.46c12.09-1.6,23.98-1.71,36.03-.36Z"/></g></g></svg>